<?xml version="1.0" standalone="no"?>
<!DOCTYPE svg PUBLIC "-//W3C//DTD SVG 20010904//EN"
 "http://www.w3.org/TR/2001/REC-SVG-20010904/DTD/svg10.dtd">
<svg version="1.0" xmlns="http://www.w3.org/2000/svg"
 width="1024.000000pt" height="1024.000000pt" viewBox="0 0 1024.000000 1024.000000"
 preserveAspectRatio="xMidYMid meet">

<g transform="translate(0.000000,1024.000000) scale(0.100000,-0.100000)"
fill="#FFFFFF" stroke="none">
<path d="M0 5120 l0 -5120 5120 0 5120 0 0 5120 0 5120 -5120 0 -5120 0 0
-5120z m5435 3276 c874 -131 1629 -673 2016 -1446 154 -307 238 -593 274 -930
19 -174 19 -305 0 -486 -36 -342 -117 -620 -265 -915 -142 -282 -280 -470
-514 -704 -431 -429 -977 -694 -1576 -765 -131 -15 -468 -12 -605 6 -597 78
-1127 335 -1541 748 -355 355 -588 757 -714 1229 -52 197 -71 341 -77 577 -8
309 22 539 103 808 211 698 710 1294 1354 1617 285 143 581 232 902 270 142
17 502 12 643 -9z m-1528 -5536 c37 -11 44 -19 66 -69 14 -31 69 -153 122
-271 187 -414 265 -591 265 -601 0 -5 -58 -9 -134 -9 l-134 0 -33 70 -32 70
-247 0 -248 0 -28 -65 c-27 -62 -30 -65 -71 -71 -24 -3 -76 -2 -116 2 l-73 9
178 390 c158 348 254 567 271 617 5 15 16 13 90 -21 46 -22 102 -45 124 -51z
m2322 -111 c47 -66 88 -122 91 -124 4 -3 46 52 94 120 l87 125 149 0 c83 0
150 -3 150 -6 0 -3 -71 -103 -158 -222 -87 -119 -161 -222 -165 -228 -4 -7 68
-114 168 -249 96 -131 175 -242 175 -247 0 -9 -180 -11 -257 -2 l-52 7 -91
128 c-51 71 -95 129 -98 129 -4 0 -43 -52 -86 -116 -113 -163 -103 -154 -194
-153 -42 1 -109 4 -149 8 l-72 6 38 50 c59 78 296 399 304 412 11 18 7 24
-172 263 l-162 215 148 5 c81 3 153 4 158 2 6 -1 48 -57 94 -123z m-1315 91
c75 -29 148 -99 184 -178 22 -48 26 -71 26 -147 1 -77 -3 -98 -25 -146 -57
-120 -154 -180 -306 -187 l-92 -4 -3 -132 -3 -131 -97 -2 -98 -2 0 481 0 480
178 -4 c155 -4 185 -8 236 -28z m806 -80 l0 -110 -175 0 -175 0 0 -80 0 -80
155 0 155 0 0 -94 0 -95 -155 2 -155 2 0 -87 0 -88 175 0 176 0 -3 -107 -3
-108 -272 -3 -273 -2 0 480 0 480 275 0 275 0 0 -110z m-1847 -1087 c42 -18
45 -28 16 -62 -17 -21 -21 -22 -32 -9 -30 38 -108 25 -132 -23 -22 -42 -18
-67 14 -100 34 -33 57 -36 99 -12 28 16 31 16 56 0 14 -10 26 -22 26 -27 0 -5
-20 -21 -45 -36 -81 -47 -181 -19 -219 60 -44 93 7 203 105 226 38 9 58 6 112
-17z m257 -45 l0 -58 54 0 c61 0 66 6 66 74 0 39 2 42 30 44 l30 2 0 -145 c0
-80 0 -148 0 -152 0 -5 -14 -8 -32 -8 l-32 0 3 58 2 57 -60 0 -61 0 0 -55 c0
-48 -3 -55 -19 -55 -11 0 -26 -3 -35 -6 -14 -5 -16 12 -16 149 l0 156 35 -2
35 -2 0 -57z m574 -83 c36 -80 66 -150 66 -155 0 -6 -15 -10 -33 -10 -28 0
-36 5 -50 34 -16 34 -17 35 -69 31 -29 -2 -58 -4 -65 -5 -6 0 -16 -13 -22 -30
-8 -26 -15 -30 -45 -30 -20 0 -36 2 -36 5 0 3 30 73 66 155 62 141 68 150 94
150 26 0 32 -9 94 -145z m406 110 c0 -34 -1 -35 -40 -35 l-40 0 0 -120 0 -120
-35 0 -35 0 0 119 0 120 -42 3 c-32 2 -44 8 -46 21 -8 43 2 47 123 47 l115 0
0 -35z m593 -112 c65 -144 66 -148 44 -155 -40 -11 -47 -8 -61 27 -16 38 -19
39 -103 29 -41 -5 -53 -11 -53 -24 0 -25 -20 -37 -57 -37 l-31 0 18 46 c10 25
41 94 68 154 47 100 53 107 80 107 27 0 32 -7 95 -147z m362 133 c50 -21 72
-72 56 -126 -14 -48 -41 -67 -101 -72 -45 -4 -45 -4 -45 -42 0 -32 -4 -40 -24
-48 -48 -17 -51 -9 -51 145 0 79 3 147 7 150 12 13 123 7 158 -7z m395 -21
c37 -36 46 -75 26 -117 -21 -43 -45 -57 -101 -60 l-45 -1 0 -49 0 -48 -35 0
-35 0 0 156 0 157 80 -5 c71 -4 84 -8 110 -33z"/>
<path d="M4880 7999 c-319 -28 -698 -152 -977 -320 -453 -274 -831 -749 -996
-1254 -63 -191 -94 -367 -104 -582 -5 -128 -8 -143 -24 -143 -10 0 -20 -4 -24
-9 -11 -18 15 -277 40 -395 138 -663 613 -1269 1243 -1585 602 -302 1271 -334
1887 -89 315 125 571 294 816 538 406 405 635 898 666 1431 l6 109 -25 0 c-24
0 -24 1 -27 103 -11 557 -257 1114 -675 1530 -484 481 -1141 724 -1806 666z
m501 -693 c162 -37 358 -123 496 -217 23 -16 45 -29 49 -29 12 0 167 -136 236
-206 227 -235 380 -523 434 -816 11 -60 25 -102 38 -118 16 -19 17 -21 3 -10
-10 7 -81 95 -158 196 -76 100 -145 187 -153 193 -10 9 -38 -21 -137 -145 -68
-86 -127 -162 -131 -169 -6 -9 7 -15 49 -20 130 -16 134 -19 513 -486 52 -64
166 -203 253 -308 86 -106 157 -197 157 -203 0 -17 -214 -388 -221 -385 -4 1
-127 146 -273 322 -147 176 -270 321 -274 323 -4 1 -116 -127 -247 -285 -132
-159 -315 -379 -407 -490 -93 -111 -189 -220 -215 -242 -117 -100 -263 -133
-421 -96 -135 32 -204 85 -362 280 -54 66 -176 213 -271 326 -96 113 -230 274
-299 357 -69 83 -128 151 -132 151 -5 1 -206 -236 -391 -463 -32 -39 -81 -97
-109 -129 l-51 -59 -40 69 c-22 37 -73 126 -113 196 l-74 129 22 27 c13 16
120 146 238 291 118 145 264 324 324 399 180 226 215 254 335 275 l69 11 -129
165 c-71 91 -133 166 -138 168 -7 2 -139 -162 -244 -307 -53 -71 -54 -68 -31
64 18 106 61 237 115 354 21 46 36 88 32 94 -3 5 -2 7 4 4 5 -3 29 27 53 66
24 40 56 87 71 106 16 19 26 38 23 43 -3 5 -2 7 3 6 5 -2 46 38 91 89 76 85
198 194 264 237 15 10 25 23 21 29 -3 5 -1 7 5 4 5 -4 43 12 84 36 188 112
384 177 603 201 102 11 331 -4 436 -28z m-1993 -303 c-8 -10 -20 -27 -26 -38
-6 -11 -12 -15 -12 -9 0 12 38 64 47 64 3 0 -1 -8 -9 -17z m-65 -93 c-14 -16
-28 -30 -30 -30 -3 0 5 14 17 30 12 17 26 30 31 30 5 0 -3 -13 -18 -30z"/>
<path d="M5053 7013 c-11 -16 -141 -199 -290 -408 -149 -209 -329 -463 -402
-564 l-131 -183 22 -30 c38 -54 220 -263 229 -263 4 0 35 38 68 85 33 47 126
175 206 285 80 110 185 255 233 322 48 67 89 122 92 122 3 0 39 -46 80 -102
240 -329 402 -554 455 -630 33 -47 65 -85 70 -83 6 1 46 45 90 97 44 53 99
118 122 146 l43 50 -158 219 c-87 121 -200 278 -252 349 -93 130 -115 160
-309 435 -106 150 -130 180 -141 180 -3 0 -15 -12 -27 -27z"/>
<path d="M5000 5609 c-67 -27 -120 -110 -120 -189 0 -66 19 -109 65 -147 157
-130 395 15 335 203 -30 93 -101 144 -200 143 -30 0 -66 -5 -80 -10z"/>
<path d="M3752 2580 c-6 -14 -27 -63 -47 -110 -20 -47 -48 -113 -61 -147 l-24
-63 145 0 c80 0 145 3 145 6 0 7 -127 301 -140 324 -7 12 -10 10 -18 -10z"/>
<path d="M4700 2509 l0 -142 83 5 c50 3 95 11 115 22 99 52 94 199 -8 240 -25
10 -70 16 -115 16 l-75 0 0 -141z"/>
<path d="M4591 1558 c-15 -44 -14 -58 7 -58 36 0 46 15 32 49 -18 44 -26 46
-39 9z"/>
<path d="M5592 1565 c-24 -52 -12 -76 31 -59 13 4 13 11 5 37 -15 46 -23 51
-36 22z"/>
<path d="M5980 1580 c0 -38 2 -40 30 -40 23 0 33 6 39 23 13 32 -4 57 -39 57
-28 0 -30 -2 -30 -40z"/>
<path d="M6353 1623 c-8 -2 -13 -22 -13 -44 0 -36 2 -39 28 -39 34 0 52 16 52
47 0 16 -8 27 -26 33 -14 6 -26 10 -27 9 -1 0 -8 -3 -14 -6z"/>
</g>
</svg>
